Coordinates
version=1
nRows=4
nColumns=63
inDegrees=yes

Units are S.I. units (second, meters, Newtons, ...)
If the header above contains a line with 'inDegrees', this indicates whether rotational values are in degrees (yes) or radians (no).

endheader
time	pelvis_tilt	pelvis_list	pelvis_rotation	pelvis_tx	pelvis_ty	pelvis_tz	hip_flexion_r	hip_adduction_r	hip_rotation_r	knee_angle_r	knee_angle_r_beta	ankle_angle_r	subtalar_angle_r	mtp_angle_r	hip_flexion_l	hip_adduction_l	hip_rotation_l	knee_angle_l	knee_angle_l_beta	ankle_angle_l	subtalar_angle_l	mtp_angle_l	L5_S1_Flex_Ext	L5_S1_Lat_Bending	L5_S1_axial_rotation	L4_L5_Flex_Ext	L4_L5_Lat_Bending	L4_L5_axial_rotation	L3_L4_Flex_Ext	L3_L4_Lat_Bending	L3_L4_axial_rotation	L2_L3_Flex_Ext	L2_L3_Lat_Bending	L2_L3_axial_rotation	L1_L2_Flex_Ext	L1_L2_Lat_Bending	L1_L2_axial_rotation	L1_T12_Flex_Ext	L1_T12_Lat_Bending	L1_T12_axial_rotation	Abs_r3	Abs_r2	Abs_r1	Abs_t1	Abs_t2	neck_flexion	neck_bending	neck_rotation	arm_flex_r	arm_add_r	arm_rot_r	elbow_flex_r	pro_sup_r	wrist_flex_r	wrist_dev_r	arm_flex_l	arm_add_l	arm_rot_l	elbow_flex_l	pro_sup_l	wrist_flex_l	wrist_dev_l
      2.97872340	     -0.37950813	     -3.70538684	     88.71059429	     -0.01032599	      1.06215217	      0.53099849	      1.30823952	     -0.61385007	      1.34572443	      5.25555358	      0.09172671	     23.67514089	      6.29313388	      0.00000000	      3.02727164	     -2.28649873	     -3.09152202	      6.26535841	      0.10935113	     29.56876386	     11.81461866	      0.00000000	     -0.09112708	      0.11396164	     -0.06042178	     -0.16923210	      0.15156898	     -0.06419814	     -0.14971268	      0.27708633	     -0.06419814	     -0.10414914	      0.27708633	     -0.05286905	     -0.08462061	      0.23239057	     -0.04909269	     -0.05207001	      0.17652658	     -0.04531633	     -0.65091162	      1.28915685	     -0.33604779	      0.00000000	      0.00000000	     13.04807689	      1.42908395	      3.71054238	      0.85642587	     -8.32855004	     32.41782096	     57.11780736	     56.97136847	      2.13509170	     18.31731449	     20.44841343	     -9.49201545	     69.56875640	     50.43710702	     43.11732606	     -2.69625102	      6.24626461
      3.00000000	     -0.36890500	     -3.59828557	     88.60806954	     -0.01016932	      1.06228393	      0.53079274	      1.19509066	     -0.58931121	      1.34571247	      5.27322826	      0.09203520	     23.87612959	      6.34471825	      0.00000000	      2.87140665	     -2.30158023	     -2.95829634	      6.31847401	      0.11027818	     29.65844114	     11.72185570	      0.00000000	     -0.08381901	      0.11717877	     -0.03967037	     -0.15566028	      0.15584776	     -0.04214977	     -0.13770624	      0.28490846	     -0.04214977	     -0.09579674	      0.28490846	     -0.03471158	     -0.07783433	      0.23895094	     -0.03223218	     -0.04789418	      0.18150991	     -0.02975278	     -0.59871078	      1.32554966	     -0.22063471	      0.00000000	      0.00000000	     12.62488719	      1.30994827	      3.58754872	      0.96217749	     -8.41214419	     32.81729158	     56.83972376	     57.28879223	      2.11328694	     18.16719170	     20.41594544	     -9.55833442	     69.76486335	     50.48511411	     43.20142878	     -2.68792658	      6.23481424
      3.02127660	     -0.44233640	     -3.52105865	     88.45844470	     -0.00992281	      1.06240067	      0.53106997	      1.23452085	     -0.71561086	      0.33028091	      5.50120313	      0.09601411	     24.29701543	      7.85079422	      0.00000000	      2.73545795	     -2.18700473	     -2.23349227	      6.27422209	      0.10950583	     29.45946412	     10.50444847	      0.00000000	     -0.08333272	      0.11164822	     -0.02653561	     -0.15475719	      0.14849213	     -0.02819408	     -0.13690732	      0.27146148	     -0.02819408	     -0.09524096	      0.27146148	     -0.02321866	     -0.07738276	      0.22767304	     -0.02156018	     -0.04761631	      0.17294309	     -0.01990171	     -0.59523726	      1.26298696	     -0.14758309	      0.00000000	      0.00000000	     12.25672454	      1.23014414	      3.74400758	      1.10278832	     -8.32863713	     32.71161159	     56.36851725	     62.30965826	      3.81293535	     16.98621741	     20.49597564	     -9.72095693	     70.24950402	     50.43843502	     43.05922241	     -2.38849992	      5.24959600
      3.04255319	     -0.53268846	     -3.41357252	     88.38304250	     -0.00984948	      1.06243856	      0.53124854	      1.16625170	     -0.83436306	     -0.17594105	      5.60039531	      0.09774534	     24.61564989	      8.45564765	      0.00000000	      2.59658584	     -2.09055274	     -2.12110058	      6.27811276	      0.10957374	     29.45471337	     10.24101355	      0.00000000	     -0.08420178	      0.10193532	     -0.01141159	     -0.15637112	      0.13557397	     -0.01212481	     -0.13833510	      0.24784553	     -0.01212481	     -0.09623421	      0.24784553	     -0.00998514	     -0.07818977	      0.20786649	     -0.00927192	     -0.04811290	      0.15789780	     -0.00855869	     -0.60144488	      1.15311267	     -0.06346784	      0.00000000	      0.00000000	     11.79175601	      1.00225414	      3.46931596	      1.22400631	     -8.48326700	     33.35882134	     56.36505654	     61.55163178	      3.69545942	     16.71904340	     20.50381574	     -9.95288752	     70.50239575	     50.73834460	     43.33498695	     -2.38516430	      5.26184583
